<svg xmlns="http://www.w3.org/2000/svg" width="45.499" height="47.106" viewBox="0 0 45.499 47.106">
  <g id="revenues" transform="translate(-616.024 -768.895)">
    <path id="패스_9008" data-name="패스 9008" d="M261.125,22.332a10,10,0,1,1-10-10,10,10,0,0,1,10,10" transform="translate(391 769)" fill="#fff" opacity="0.2"/>
    <rect id="사각형_4622" data-name="사각형 4622" width="11.25" height="3.125" transform="translate(628.555 777.516)" fill="none" stroke="#fff" stroke-linecap="round" stroke-linejoin="round" stroke-width="2"/>
    <path id="패스_9009" data-name="패스 9009" d="M245.374,11.641c2.515,0,8.519,2.155,11.5,10.4" transform="translate(391 769)" fill="none" stroke="#fff" stroke-linecap="round" stroke-linejoin="round" stroke-width="2"/>
    <path id="패스_9010" data-name="패스 9010" d="M240.987,11.641c-2.888,0-10.375,2.84-12.606,14.482L226.112,37.39C225.347,44.13,229.84,46,233.985,46h18.391c4.145,0,8.638-1.871,7.873-8.611L257.98,26.123c-2.231-11.642-9.718-14.482-12.606-14.482" transform="translate(391 769)" fill="none" stroke="#fff" stroke-linecap="round" stroke-linejoin="round" stroke-width="2"/>
    <path id="패스_9011" data-name="패스 9011" d="M238.731,8.5,236.1,3.336a.952.952,0,0,1,1.261-1.306l2.25,1.19a.92.92,0,0,0,1.075-.158l1.842-1.8a.921.921,0,0,1,1.292,0l1.845,1.8a.92.92,0,0,0,1.075.158L249,2.029a.952.952,0,0,1,1.261,1.306L247.63,8.5" transform="translate(391 769)" fill="none" stroke="#fff" stroke-linecap="round" stroke-linejoin="round" stroke-width="2"/>
    <path id="패스_9012" data-name="패스 9012" d="M238.785,34.862H244.4a3.092,3.092,0,0,0,3.261-2.888,3.092,3.092,0,0,0-3.261-2.889h-3a2.554,2.554,0,0,1-2.7-2.387,2.555,2.555,0,0,1,2.7-2.387h5.1" transform="translate(391 769)" fill="none" stroke="#fff" stroke-linecap="round" stroke-linejoin="round" stroke-width="2"/>
    <line id="선_3740" data-name="선 3740" y2="14.567" transform="translate(634.18 791.303)" fill="none" stroke="#fff" stroke-linecap="round" stroke-linejoin="round" stroke-width="2"/>
    <path id="패스_9013" data-name="패스 9013" d="M259.022,18.477l7.672-7.672,2.829,2.828V2.319H258.209l2.828,2.829L254,12.182" transform="translate(391 769)" fill="none" stroke="#fff" stroke-linecap="round" stroke-linejoin="round" stroke-width="2"/>
  </g>
</svg>
