<svg xmlns="http://www.w3.org/2000/svg" width="47" height="46.04" viewBox="0 0 47 46.04">
  <g id="orderbacklog" transform="translate(-540.11 -772.222)">
    <path id="패스_8993" data-name="패스 8993" d="M195.11,25.836a10,10,0,1,1-10-10,10,10,0,0,1,10,10" transform="translate(391 769)" fill="#fff" opacity="0.2"/>
    <ellipse id="타원_778" data-name="타원 778" cx="12.581" cy="5.661" rx="12.581" ry="5.661" transform="translate(541.11 773.222)" fill="none" stroke="#fff" stroke-linecap="round" stroke-linejoin="round" stroke-width="2"/>
    <path id="패스_8994" data-name="패스 8994" d="M174.285,13.972a3.23,3.23,0,0,1,.987,2.2c0,3.126-5.633,5.661-12.581,5.661S150.11,19.3,150.11,16.174a3.228,3.228,0,0,1,.986-2.2" transform="translate(391 769)" fill="none" stroke="#fff" stroke-linecap="round" stroke-linejoin="round" stroke-width="2"/>
    <path id="패스_8995" data-name="패스 8995" d="M164.353,28.077q-.816.048-1.662.049c-6.948,0-12.581-2.535-12.581-5.662a3.225,3.225,0,0,1,.987-2.2" transform="translate(391 769)" fill="none" stroke="#fff" stroke-linecap="round" stroke-linejoin="round" stroke-width="2"/>
    <path id="패스_8996" data-name="패스 8996" d="M162.691,34.311c-6.948,0-12.581-2.535-12.581-5.661a3.225,3.225,0,0,1,.987-2.2" transform="translate(391 769)" fill="none" stroke="#fff" stroke-linecap="round" stroke-linejoin="round" stroke-width="2"/>
    <path id="패스_8997" data-name="패스 8997" d="M164.452,40.652q-.862.054-1.761.055c-6.948,0-12.581-2.535-12.581-5.661a3.23,3.23,0,0,1,.987-2.2" transform="translate(391 769)" fill="none" stroke="#fff" stroke-linecap="round" stroke-linejoin="round" stroke-width="2"/>
    <circle id="타원_779" data-name="타원 779" cx="14" cy="14" r="14" transform="translate(558.11 789.263)" fill="none" stroke="#fff" stroke-linecap="round" stroke-linejoin="round" stroke-width="2"/>
    <path id="패스_8998" data-name="패스 8998" d="M176.714,39.538h5.612a3.092,3.092,0,0,0,3.261-2.888,3.092,3.092,0,0,0-3.261-2.889h-3a2.554,2.554,0,0,1-2.695-2.387,2.555,2.555,0,0,1,2.695-2.387h5.1" transform="translate(391 769)" fill="none" stroke="#fff" stroke-linecap="round" stroke-linejoin="round" stroke-width="2"/>
    <line id="선_3739" data-name="선 3739" y2="14.567" transform="translate(572.11 795.979)" fill="none" stroke="#fff" stroke-linecap="round" stroke-linejoin="round" stroke-width="2"/>
  </g>
</svg>
