<svg xmlns="http://www.w3.org/2000/svg" width="22.584" height="27" viewBox="0 0 22.584 27">
  <g id="그룹_2344" data-name="그룹 2344" transform="translate(-21.707 2)">
    <path id="패스_9250" data-name="패스 9250" d="M49.342,72.941a4.5,4.5,0,1,1-4.5-4.5,4.5,4.5,0,0,1,4.5,4.5" transform="translate(-14.342 -70.441)" fill="#cdd1e7"/>
    <path id="Icon_feather-phone-call" data-name="Icon feather-phone-call" d="M25.751,19.942v3.407a2.271,2.271,0,0,1-2.475,2.271,22.472,22.472,0,0,1-9.8-3.486,23.567,23.567,0,0,1-2.068-1.488A21.677,21.677,0,0,1,6.663,15.32,22.472,22.472,0,0,1,3.177,5.475,2.271,2.271,0,0,1,5.437,3H8.843a2.271,2.271,0,0,1,2.271,1.953,14.58,14.58,0,0,0,.795,3.191,2.271,2.271,0,0,1-.511,2.4L9.956,11.982A18.168,18.168,0,0,0,16.769,18.8l1.442-1.442a2.271,2.271,0,0,1,2.4-.511,14.58,14.58,0,0,0,3.191.795A2.271,2.271,0,0,1,25.751,19.942Z" transform="translate(18.539 -0.629)" fill="#1428a0"/>
  </g>
</svg>
