<svg xmlns="http://www.w3.org/2000/svg" width="45.956" height="46.07" viewBox="0 0 45.956 46.07">
  <g id="countries" transform="translate(-391.044 -769.096)">
    <path id="패스_8975" data-name="패스 8975" d="M46,36.166a10,10,0,1,1-10-10,10,10,0,0,1,10,10" transform="translate(391 769)" fill="#fff" opacity="0.2"/>
    <path id="패스_8989" data-name="패스 8989" d="M5.467,9.1l4.913,4.756,4.045.622.934,2.178-3.423,2.178L9.757,23.812l2.49,2.179,2.178-2.49,3.423,4.357,4.668,1.867.622,2.489L21.893,33.77l.311,1.867,1.556,1.245-.311,2.178-1.867,1.867.311,1.867" transform="translate(391 769)" fill="none" stroke="#fff" stroke-miterlimit="10" stroke-width="2"/>
    <path id="패스_8990" data-name="패스 8990" d="M37.578,8.365l-3.549,3L31.851,15.1l-4.667-.623-.734,4.009-2.731,1.943-1.2,2.139,2.178,3.423,2.49.933,7.157-.311,5.6,5.29" transform="translate(391 769)" fill="none" stroke="#fff" stroke-miterlimit="10" stroke-width="2"/>
    <circle id="타원_777" data-name="타원 777" cx="20.849" cy="20.849" r="20.849" transform="translate(392.044 770.096)" fill="none" stroke="#fff" stroke-linecap="round" stroke-linejoin="round" stroke-width="2"/>
    <path id="패스_8991" data-name="패스 8991" d="M21.893,42.794S5.116,41.313,1.868,27.754c0,0-3.277-8.781,3.6-18.655" transform="translate(391 769)" fill="none" stroke="#fff" stroke-miterlimit="10" stroke-width="1"/>
    <path id="패스_8992" data-name="패스 8992" d="M19.649,1.1s-.874,2.258-1.112,2.258-1.6.356-1.6.356A18.794,18.794,0,0,0,16.4,7.176c.179.277,1.768,3.009,1.768,3.009l2.926-1.663s2.5-1.663,2.613-2.554S26.557,3,26.557,3l1.866-.857" transform="translate(391 769)" fill="none" stroke="#fff" stroke-miterlimit="10" stroke-width="2"/>
  </g>
</svg>
