<svg xmlns="http://www.w3.org/2000/svg" width="46.536" height="45.863" viewBox="0 0 46.536 45.863">
  <g id="projects" transform="translate(-464.658 -769.096)">
    <path id="패스_8976" data-name="패스 8976" d="M93.658,16.648a10,10,0,1,1-10-10,10,10,0,0,1,10,10" transform="translate(391 769)" fill="#fff" opacity="0.2"/>
    <path id="패스_8977" data-name="패스 8977" d="M119.194,9.071V43.364a1.6,1.6,0,0,1-1.6,1.6H87.167a1.6,1.6,0,0,1-1.6-1.6V2.691a1.6,1.6,0,0,1,1.6-1.6h24.02" transform="translate(391 769)" fill="none" stroke="#fff" stroke-linecap="round" stroke-linejoin="round" stroke-width="2"/>
    <path id="패스_8978" data-name="패스 8978" d="M119.194,9.071h-6.406a1.6,1.6,0,0,1-1.6-1.594V1.1Z" transform="translate(391 769)" fill="none" stroke="#fff" stroke-linecap="round" stroke-linejoin="round" stroke-width="2"/>
    <line id="선_3736" data-name="선 3736" x2="13.352" transform="translate(490.941 785.648)" fill="none" stroke="#fff" stroke-linecap="round" stroke-linejoin="round" stroke-width="2"/>
    <path id="패스_8979" data-name="패스 8979" d="M91.465,15.362,93.18,18.11l2.671-4.386" transform="translate(391 769)" fill="none" stroke="#fff" stroke-linecap="round" stroke-linejoin="round" stroke-width="2"/>
    <line id="선_3737" data-name="선 3737" x2="13.331" transform="translate(490.963 793.927)" fill="none" stroke="#fff" stroke-linecap="round" stroke-linejoin="round" stroke-width="2"/>
    <path id="패스_8980" data-name="패스 8980" d="M91.465,23.641l1.715,2.748L95.851,22" transform="translate(391 769)" fill="none" stroke="#fff" stroke-linecap="round" stroke-linejoin="round" stroke-width="2"/>
    <line id="선_3738" data-name="선 3738" x2="13.341" transform="translate(490.952 802.206)" fill="none" stroke="#fff" stroke-linecap="round" stroke-linejoin="round" stroke-width="2"/>
    <path id="패스_8981" data-name="패스 8981" d="M91.465,31.92l1.715,2.748,2.671-4.386" transform="translate(391 769)" fill="none" stroke="#fff" stroke-linecap="round" stroke-linejoin="round" stroke-width="2"/>
  </g>
</svg>
