<svg xmlns="http://www.w3.org/2000/svg" width="35.105" height="40.413" viewBox="0 0 35.105 40.413">
  <g id="그룹_2344" data-name="그룹 2344" transform="translate(-20.296 14)">
    <path id="패스_9250" data-name="패스 9250" d="M52.342,74.441a6,6,0,1,1-6-6,6,6,0,0,1,6,6" transform="translate(-13.342 -82.441)" fill="#727ec6"/>
    <path id="Icon_feather-phone-call" data-name="Icon feather-phone-call" d="M38.272,29.335v5.3a3.53,3.53,0,0,1-3.848,3.53,34.931,34.931,0,0,1-15.232-5.419,36.633,36.633,0,0,1-3.215-2.313A33.694,33.694,0,0,1,8.6,22.151a34.931,34.931,0,0,1-5.419-15.3A3.53,3.53,0,0,1,6.695,3h5.3a3.53,3.53,0,0,1,3.53,3.036A22.663,22.663,0,0,0,16.755,11a3.53,3.53,0,0,1-.794,3.724L13.72,16.962a28.241,28.241,0,0,0,10.59,10.59l2.242-2.242a3.53,3.53,0,0,1,3.724-.794,22.663,22.663,0,0,0,4.96,1.236A3.53,3.53,0,0,1,38.272,29.335Z" transform="translate(17.128 -11.761)" fill="#f5f5f5"/>
  </g>
</svg>
