<svg xmlns="http://www.w3.org/2000/svg" xmlns:xlink="http://www.w3.org/1999/xlink" width="96" height="96" viewBox="0 0 96 96">
  <defs>
    <clipPath id="clip-path">
      <rect id="사각형_5100" data-name="사각형 5100" width="96" height="96" transform="translate(663.27 229.598)" fill="#fff"/>
    </clipPath>
  </defs>
  <g id="icon_친환경" transform="translate(-663.27 -229.598)" clip-path="url(#clip-path)">
    <path id="패스_9714" data-name="패스 9714" d="M76.824,86.682A18.241,18.241,0,1,1,58.583,68.441,18.241,18.241,0,0,1,76.824,86.682" transform="translate(674.841 212.368)" fill="#4ba7e2" opacity="0.5"/>
    <line id="선_5268" data-name="선 5268" y2="7.904" transform="translate(707.874 247.368)" fill="none" stroke="#fff" stroke-linecap="round" stroke-linejoin="round" stroke-width="3"/>
    <ellipse id="타원_894" data-name="타원 894" cx="33.442" cy="33.442" rx="33.442" ry="33.442" transform="translate(674.432 255.272)" fill="none" stroke="#fff" stroke-linecap="round" stroke-linejoin="round" stroke-width="3"/>
    <path id="패스_9715" data-name="패스 9715" d="M13.167,56.611l7.88,7.628,6.489,1,1.5,3.494-5.491,3.494-3.494,7.986,3.994,3.494,3.494-3.994L33.026,86.7l7.487,2.995,1,3.993-2,2.5.5,2.995,2.5,2-.5,3.494-3,3,.5,2.995" transform="translate(668.358 211.497)" fill="none" stroke="#fff" stroke-linecap="round" stroke-linejoin="round" stroke-width="3"/>
    <path id="패스_9716" data-name="패스 9716" d="M60.071,86.5l-1.93,3.431,3.494,5.491,3.993,1.5,11.48-.5,8.984,8.486" transform="translate(650.73 199.782)" fill="none" stroke="#fff" stroke-linecap="round" stroke-linejoin="round" stroke-width="3"/>
    <path id="패스_9717" data-name="패스 9717" d="M83.546,54.674l-5.692,4.813-3.494,5.99-7.487-1L65.7,70.908l-4.381,3.117" transform="translate(649.486 212.256)" fill="none" stroke="#fff" stroke-linecap="round" stroke-linejoin="round" stroke-width="3"/>
    <path id="패스_9718" data-name="패스 9718" d="M75.957,1.527S57.069.339,56.513,13.757q-.013.3-.013.612S74.133,21.094,75.957,1.527Z" transform="translate(651.374 233.099)" fill="none" stroke="#fff" stroke-linecap="round" stroke-linejoin="round" stroke-width="3"/>
    <path id="패스_9719" data-name="패스 9719" d="M24.5,1.527S43.388.339,43.944,13.757q.013.3.013.612S26.324,21.094,24.5,1.527Z" transform="translate(663.916 233.099)" fill="none" stroke="#fff" stroke-linecap="round" stroke-linejoin="round" stroke-width="3"/>
    <line id="선_5269" data-name="선 5269" x1="7.892" y2="4.281" transform="translate(707.887 242.575)" fill="none" stroke="#fff" stroke-linecap="round" stroke-linejoin="round" stroke-width="3"/>
    <line id="선_5270" data-name="선 5270" x2="7.892" y2="4.281" transform="translate(699.969 242.575)" fill="none" stroke="#fff" stroke-linecap="round" stroke-linejoin="round" stroke-width="3"/>
  </g>
</svg>
