<svg xmlns="http://www.w3.org/2000/svg" xmlns:xlink="http://www.w3.org/1999/xlink" width="96" height="96" viewBox="0 0 96 96">
  <defs>
    <clipPath id="clip-path">
      <rect id="사각형_4883" data-name="사각형 4883" width="96" height="96" transform="translate(707 3244)" fill="#fff" stroke="#707070" stroke-width="1" opacity="0.9"/>
    </clipPath>
    <clipPath id="clip-path-2">
      <rect id="사각형_4882" data-name="사각형 4882" width="98" height="98" fill="none"/>
    </clipPath>
  </defs>
  <g id="icon_EDP" transform="translate(-707 -3244)" clip-path="url(#clip-path)">
    <g id="그룹_2696" data-name="그룹 2696" transform="translate(706 3243)">
      <g id="그룹_2695" data-name="그룹 2695" clip-path="url(#clip-path-2)">
        <path id="패스_9475" data-name="패스 9475" d="M76.855,86.7A18.256,18.256,0,1,1,58.6,68.441,18.256,18.256,0,0,1,76.855,86.7" transform="translate(-10.25 -47.748)" fill="#8c39cf"/>
        <g id="모니터" transform="translate(3.064 -383.316)">
          <rect id="사각형_4881" data-name="사각형 4881" width="69.121" height="46.081" rx="4" transform="translate(11.026 399.258)" fill="none" stroke="#fff" stroke-linecap="round" stroke-linejoin="round" stroke-width="3"/>
          <path id="패스_9476" data-name="패스 9476" d="M72.238,97.5l.905,18.251a.96.96,0,0,1-.959,1.012H65.571a.96.96,0,0,1-.959-1.012L65.518,97.5" transform="translate(-23.291 347.838)" fill="none" stroke="#fff" stroke-linecap="round" stroke-linejoin="round" stroke-width="3"/>
          <path id="패스_9477" data-name="패스 9477" d="M44.6,131.089l24.6,3.4,1.574,2.188a.915.915,0,0,1-.7,1.459H10.6a.915.915,0,0,1-.7-1.459l1.574-2.188,24.6-3.4" transform="translate(5.252 330.372)" fill="none" stroke="#fff" stroke-linecap="round" stroke-linejoin="round" stroke-width="3"/>
        </g>
        <path id="패스_9478" data-name="패스 9478" d="M59.125,32.125l4,4-4,4" transform="translate(13.072 3.504)" fill="none" stroke="#fff" stroke-linecap="round" stroke-linejoin="round" stroke-width="3"/>
        <path id="패스_9479" data-name="패스 9479" d="M13.125,32.125l-4,4,4,4" transform="translate(12.252 3.504)" fill="none" stroke="#fff" stroke-linecap="round" stroke-linejoin="round" stroke-width="3"/>
        <g id="그룹_2694" data-name="그룹 2694" transform="translate(1.74 -4.95)">
          <path id="패스_9480" data-name="패스 9480" d="M46.242,26.845v5.334l-8.669-5.334v5.226H30.62l-2.889-6.946H23.125V45.907H54.911V32.516Z" transform="translate(8.242 8.955)" fill="none" stroke="#fff" stroke-linecap="round" stroke-linejoin="round" stroke-width="3"/>
          <path id="패스_9481" data-name="패스 9481" d="M29.125,42.487V36.625H36.46v6.113" transform="translate(9.577 11.514)" fill="none" stroke="#fff" stroke-linecap="round" stroke-linejoin="round" stroke-width="3"/>
        </g>
      </g>
    </g>
  </g>
</svg>
