<svg xmlns="http://www.w3.org/2000/svg" xmlns:xlink="http://www.w3.org/1999/xlink" width="234.982" height="35.576" viewBox="0 0 234.982 35.576">
  <defs>
    <clipPath id="clip-path">
      <rect width="234.982" height="35.576" fill="none"/>
    </clipPath>
  </defs>
  <g id="CI" clip-path="url(#clip-path)">
    <g id="CI-2" data-name="CI">
      <path id="패스_18" data-name="패스 18" d="M183.4,11.236a4.5,4.5,0,0,1-.4,2.063,3.029,3.029,0,0,1-1.088,1.2,4.257,4.257,0,0,1-1.481.524,9.868,9.868,0,0,1-1.633.136,4.738,4.738,0,0,1-2.047-.378,2.98,2.98,0,0,1-1.223-.966,3.609,3.609,0,0,1-.553-1.418,7,7,0,0,1-.09-1.664H177.7a6.793,6.793,0,0,0,.061.918,2.037,2.037,0,0,0,.176.776,1.462,1.462,0,0,0,.464.51,1.566,1.566,0,0,0,.843.2,1.219,1.219,0,0,0,1.04-.454,1.723,1.723,0,0,0,.327-1.1,1.586,1.586,0,0,0-.223-.849,3.138,3.138,0,0,0-.657-.674,20.125,20.125,0,0,0-1.975-1.207,12.294,12.294,0,0,1-1.04-.72,5.7,5.7,0,0,1-.916-.816,3.414,3.414,0,0,1-.9-2.4,3.891,3.891,0,0,1,.947-2.745,4.605,4.605,0,0,1,3.479-1.1q4.151-.038,3.905,4.079h-2.675a4.362,4.362,0,0,0-.218-1.43,1.129,1.129,0,0,0-1.136-.633,1.339,1.339,0,0,0-1.516,1.462,1.357,1.357,0,0,0,.265.834,2.711,2.711,0,0,0,.633.666,9,9,0,0,0,.927.582c.327.193.667.389,1.027.585a7.347,7.347,0,0,1,1.976,1.481,4.549,4.549,0,0,1,.66,1.082,4.348,4.348,0,0,1,.22,1.443" transform="translate(-45.919 -0.285)" fill="#1428a0"/>
      <path id="패스_19" data-name="패스 19" d="M193.367,4.058h-.033L192.082,9.94h2.62Zm-5.293,10.968,3.641-13.577h3.618L198.9,15.026h-2.9l-.726-3.012h-3.75l-.737,3.012Z" transform="translate(-49.386 -0.381)" fill="#1428a0"/>
      <path id="패스_20" data-name="패스 20" d="M204.791,15.026V1.449h4.42l2.064,9.236h.035L213.5,1.449h4.279V15.026H215.1V4.544h-.035l-2.537,10.482H209.9L207.5,4.544h-.037V15.026Z" transform="translate(-53.776 -0.381)" fill="#1428a0"/>
      <path id="패스_21" data-name="패스 21" d="M233.985,11.236a4.58,4.58,0,0,1-.4,2.063,3.066,3.066,0,0,1-1.09,1.2,4.25,4.25,0,0,1-1.484.524,9.824,9.824,0,0,1-1.631.136,4.735,4.735,0,0,1-2.044-.378,2.989,2.989,0,0,1-1.224-.966,3.632,3.632,0,0,1-.554-1.418,6.884,6.884,0,0,1-.091-1.664h2.826a6.559,6.559,0,0,0,.061.918,2,2,0,0,0,.178.776,1.411,1.411,0,0,0,.463.51,1.547,1.547,0,0,0,.841.2,1.229,1.229,0,0,0,1.042-.454,1.749,1.749,0,0,0,.325-1.1,1.625,1.625,0,0,0-.22-.849,3.09,3.09,0,0,0-.664-.674,19.271,19.271,0,0,0-1.97-1.207,12.616,12.616,0,0,1-1.038-.72,5.607,5.607,0,0,1-.916-.816,3.4,3.4,0,0,1-.9-2.4,3.872,3.872,0,0,1,.943-2.745,4.606,4.606,0,0,1,3.475-1.1q4.153-.038,3.909,4.079h-2.677a4.248,4.248,0,0,0-.218-1.43,1.127,1.127,0,0,0-1.136-.633,1.334,1.334,0,0,0-1.513,1.462,1.352,1.352,0,0,0,.265.834,2.662,2.662,0,0,0,.633.666,9.388,9.388,0,0,0,.925.582q.49.29,1.029.585A7.312,7.312,0,0,1,233.1,8.711a4.475,4.475,0,0,1,.667,1.082,4.469,4.469,0,0,1,.217,1.443" transform="translate(-59.201 -0.285)" fill="#1428a0"/>
      <path id="패스_22" data-name="패스 22" d="M248.9,1.449V11.08a5.516,5.516,0,0,1-.2,1.489,3.725,3.725,0,0,1-.771,1.346,3.421,3.421,0,0,1-1.38.948,5.637,5.637,0,0,1-2.144.395q-4.537-.1-4.52-4.177V1.449H242.7V10.9a2.755,2.755,0,0,0,.479,1.794,1.474,1.474,0,0,0,1.186.543q1.722-.017,1.7-2.338V1.449Z" transform="translate(-62.991 -0.381)" fill="#1428a0"/>
      <path id="패스_23" data-name="패스 23" d="M255.486,15.026V1.449H259.2l3.488,9.4h.039v-9.4h2.565V15.026H261.67l-3.58-9.93h-.035v9.93Z" transform="translate(-67.088 -0.381)" fill="#1428a0"/>
      <path id="패스_24" data-name="패스 24" d="M278.242,5.508a4.526,4.526,0,0,0-.018-.932,1.994,1.994,0,0,0-.237-.767,1.175,1.175,0,0,0-.481-.538,1.989,1.989,0,0,0-.887-.171q-1.2.04-1.462,1.513a19.233,19.233,0,0,0-.223,3.545,12.725,12.725,0,0,0,.4,4.1,1.286,1.286,0,0,0,.612.72,1.851,1.851,0,0,0,.93.212,3.505,3.505,0,0,0,1.349-.265V9.912h-1.473V7.844h4.295V14.7c-.4.092-.977.188-1.72.283a17.239,17.239,0,0,1-2.007.174q-3.36.015-4.307-1.667A11.756,11.756,0,0,1,272.155,8a21.65,21.65,0,0,1,.108-2.544,7.469,7.469,0,0,1,.543-2.21,3.512,3.512,0,0,1,1.41-1.585,5.014,5.014,0,0,1,2.611-.582,4.4,4.4,0,0,1,3.2,1.118,4.169,4.169,0,0,1,1.024,3.307Z" transform="translate(-71.464 -0.285)" fill="#1428a0"/>
      <path id="패스_25" data-name="패스 25" d="M174.867,42.8V29.218h7.248v2.071h-4.422v3.378h4.073v2.071h-4.073v3.987h4.563V42.8Z" transform="translate(-45.919 -7.673)" fill="#1428a0"/>
      <path id="패스_26" data-name="패스 26" d="M187.557,42.8V29.218h3.714l3.489,9.4h.039v-9.4h2.567V42.8h-3.629l-3.579-9.93h-.034V42.8Z" transform="translate(-49.251 -7.834)" fill="#1428a0"/>
      <path id="패스_27" data-name="패스 27" d="M210.316,33.278a4.9,4.9,0,0,0-.022-.932,2.057,2.057,0,0,0-.234-.767,1.182,1.182,0,0,0-.482-.538,1.972,1.972,0,0,0-.885-.171c-.8.027-1.29.532-1.466,1.513a19.271,19.271,0,0,0-.218,3.545,12.644,12.644,0,0,0,.395,4.1,1.275,1.275,0,0,0,.614.72,1.839,1.839,0,0,0,.928.212,3.491,3.491,0,0,0,1.349-.265V37.682h-1.47V35.614h4.3v6.86c-.406.092-.98.188-1.722.283a17.374,17.374,0,0,1-2.007.174q-3.364.015-4.308-1.667a11.752,11.752,0,0,1-.858-5.491,21.806,21.806,0,0,1,.108-2.544,7.63,7.63,0,0,1,.543-2.21,3.526,3.526,0,0,1,1.411-1.585,5.02,5.02,0,0,1,2.613-.582,4.41,4.41,0,0,1,3.2,1.118,4.177,4.177,0,0,1,1.026,3.307Z" transform="translate(-53.627 -7.577)" fill="#1428a0"/>
      <rect id="사각형_3" data-name="사각형 3" width="2.827" height="13.577" transform="translate(162.076 21.545)" fill="#1428a0"/>
      <path id="패스_28" data-name="패스 28" d="M226.822,42.8V29.218h3.71l3.492,9.4h.037v-9.4h2.568V42.8H233l-3.579-9.93h-.038V42.8Z" transform="translate(-59.561 -7.673)" fill="#1428a0"/>
      <path id="패스_29" data-name="패스 29" d="M243.616,42.8V29.218h7.248v2.071h-4.424v3.378h4.074v2.071h-4.074v3.987h4.566V42.8Z" transform="translate(-63.971 -7.673)" fill="#1428a0"/>
      <path id="패스_30" data-name="패스 30" d="M256.23,42.8V29.218h7.248v2.071h-4.422v3.378h4.072v2.071h-4.072v3.987h4.564V42.8Z" transform="translate(-67.284 -7.673)" fill="#1428a0"/>
      <path id="패스_31" data-name="패스 31" d="M271.287,35.1h1.3a1.3,1.3,0,0,0,.742-.2,1.551,1.551,0,0,0,.465-.476,3.191,3.191,0,0,0,.3-1.337,2.047,2.047,0,0,0-.392-1.4,1.487,1.487,0,0,0-1.113-.4h-1.3Zm0,7.7H268.46V29.218H273.7q3.1.02,3.174,3.555a3.938,3.938,0,0,1-.558,2.183,2.786,2.786,0,0,1-1.955,1.147v.038c.178.011.406.044.68.09a2.142,2.142,0,0,1,.806.343,1.879,1.879,0,0,1,.687.768,3.564,3.564,0,0,1,.287,1.473c0,.5.021,1.193.069,2.082.023.416.058.8.1,1.144a3.647,3.647,0,0,0,.141.754h-2.689a3.77,3.77,0,0,1-.277-1.313c-.023-.44-.028-.88-.016-1.324V38.992a2.566,2.566,0,0,0-.192-.938,1.327,1.327,0,0,0-.6-.666,3.158,3.158,0,0,0-1.3-.22h-.758Z" transform="translate(-70.495 -7.673)" fill="#1428a0"/>
      <rect id="사각형_4" data-name="사각형 4" width="2.823" height="13.577" transform="translate(208.607 21.545)" fill="#1428a0"/>
      <path id="패스_32" data-name="패스 32" d="M289.917,42.8V29.218h3.714l3.489,9.4h.035v-9.4h2.571V42.8H296.1l-3.579-9.93h-.035V42.8Z" transform="translate(-76.13 -7.673)" fill="#1428a0"/>
      <path id="패스_33" data-name="패스 33" d="M312.672,33.278a4.736,4.736,0,0,0-.021-.932,1.992,1.992,0,0,0-.234-.767,1.171,1.171,0,0,0-.483-.538,1.977,1.977,0,0,0-.886-.171c-.8.027-1.288.532-1.46,1.513a19.094,19.094,0,0,0-.223,3.545,12.7,12.7,0,0,0,.4,4.1,1.29,1.29,0,0,0,.614.72,1.852,1.852,0,0,0,.928.212,3.49,3.49,0,0,0,1.35-.265V37.682h-1.47V35.614h4.295v6.86c-.4.092-.976.188-1.722.283a17.3,17.3,0,0,1-2.005.174q-3.366.015-4.309-1.667a11.768,11.768,0,0,1-.859-5.491,22.476,22.476,0,0,1,.108-2.544,7.631,7.631,0,0,1,.546-2.21,3.491,3.491,0,0,1,1.41-1.585,5.019,5.019,0,0,1,2.611-.582,4.4,4.4,0,0,1,3.194,1.118,4.161,4.161,0,0,1,1.026,3.307Z" transform="translate(-80.505 -7.577)" fill="#1428a0"/>
      <path id="패스_34" data-name="패스 34" d="M82.452,23.181H78.363l-2.739-9.01h-.047l.151,9.01H72.88V11.919h4.258l2.534,8.659h.059l-.148-8.659h2.869ZM69.8,20.059c0,.21-.019.639-.03.748-.176,1.875-1.515,2.829-3.974,2.829s-3.811-.953-3.985-2.829c-.012-.109-.033-.538-.028-.746V11.919H64.72v8.4a2.047,2.047,0,0,0,.027.424,1.092,1.092,0,0,0,2.1,0,2.905,2.905,0,0,0,.024-.424v-8.4H69.8ZM59.169,21.093c-.313,2.2-2.473,2.587-4,2.587-2.535,0-4.1-1.083-4.1-3.287l0-.9h3.069v1.121a.969.969,0,0,0,1.091.982.938.938,0,0,0,1.054-.726,1.416,1.416,0,0,0-.018-.807c-.566-1.417-4.553-2.111-5.034-4.4a3.749,3.749,0,0,1-.03-1.518c.337-2.082,2.333-2.515,3.941-2.515a4.293,4.293,0,0,1,3.111.942,2.589,2.589,0,0,1,.706,1.909V15.3H56.1v-.726A.913.913,0,0,0,55.09,13.6a.894.894,0,0,0-.988.726,1.4,1.4,0,0,0,.016.568c.308,1.268,4.57,2.034,5.041,4.352a5.617,5.617,0,0,1,.01,1.849M45.485,23.3l-.068-9.88h-.052L43.526,23.3H40.594l-1.829-9.88h-.051l-.068,9.88H35.74l.251-11.38h4.675l1.361,8.451h.066l1.364-8.451h4.672L48.38,23.3Zm-15.031,0L28.971,13.223h-.052L27.4,23.3H24.273l2.1-11.38h5.1l2.09,11.38ZM107.087,8.471C105.628.106,80.493-2.507,50.937,2.638a159.017,159.017,0,0,0-32.346,8.938,4.235,4.235,0,0,1,2.942.939,2.632,2.632,0,0,1,.709,1.933v.83h-2.9v-.734a.918.918,0,0,0-1.015-.987.9.9,0,0,0-.988.732,1.343,1.343,0,0,0,.012.576c.309,1.271,4.611,2.057,5.081,4.4a5.559,5.559,0,0,1,.015,1.866c-.268,1.889-1.926,2.616-4.037,2.616-2.944,0-4.142-1.4-4.142-3.318v-.913h3.108l0,1.138a.98.98,0,0,0,1.094.99.95.95,0,0,0,1.066-.737,1.446,1.446,0,0,0-.021-.815c-.576-1.441-4.594-2.114-5.087-4.447a3.926,3.926,0,0,1-.029-1.532,3.183,3.183,0,0,1,.257-.807C4.981,17.826-.684,22.8.066,27.107c1.458,8.368,26.595,10.975,56.149,5.83A156.466,156.466,0,0,0,89.774,23.5c-.129.006-.253.017-.387.017-2.023,0-3.828-.757-4.017-2.823a6.98,6.98,0,0,1-.039-.752v-4.75c0-.2.024-.565.046-.749.239-2,1.82-2.822,4.009-2.822,1.694,0,3.772.486,4,2.822a6.427,6.427,0,0,1,.024.712V15.6H90.485v-.668a2.745,2.745,0,0,0-.035-.424.988.988,0,0,0-1.086-.789,1.01,1.01,0,0,0-1.091.789,2.665,2.665,0,0,0-.044.53V20.2a2.608,2.608,0,0,0,.026.426,1.181,1.181,0,0,0,2.231,0,2.12,2.12,0,0,0,.027-.426V18.6h-1.15V16.876h4.071v3.068c0,.21-.005.365-.038.748a2.917,2.917,0,0,1-.488,1.394c9.431-4.476,14.921-9.379,14.18-13.616" transform="translate(0 0)" fill="#1428a0"/>
    </g>
  </g>
</svg>
